<svg xmlns="http://www.w3.org/2000/svg" viewBox="0 0 800 500" fill="none">
  <defs>
    <linearGradient id="bgAurum" x1="0" y1="0" x2="1" y2="1">
      <stop offset="0%" stop-color="#142118"/>
      <stop offset="100%" stop-color="#24382A"/>
    </linearGradient>
  </defs>

  <rect width="800" height="500" rx="16" fill="url(#bgAurum)"/>
  <rect x="24" y="24" width="752" height="452" rx="12" fill="#0E1711" stroke="rgba(66,168,61,0.3)" stroke-width="1.5"/>
  <circle cx="50" cy="46" r="5" fill="#EF4444"/>
  <circle cx="68" cy="46" r="5" fill="#F59E0B"/>
  <circle cx="86" cy="46" r="5" fill="#10B981"/>

  <rect x="130" y="38" width="300" height="16" rx="8" fill="#19281E"/>
  <text x="145" y="50" font-family="'Plus Jakarta Sans', sans-serif" font-size="10" fill="#94A3B8">aurumorganics.in/products/malabar-black-gold</text>

  <!-- Left: Spice Product Box -->
  <rect x="50" y="80" width="340" height="370" rx="8" fill="#182A1F"/>
  <circle cx="220" cy="180" r="60" fill="#42A83D" opacity="0.15"/>
  <circle cx="220" cy="180" r="45" fill="#FBB03B" opacity="0.3"/>
  <text x="220" y="185" text-anchor="middle" font-family="'Outfit', sans-serif" font-size="16" font-weight="700" fill="#FFFFFF">100% Single Origin</text>

  <text x="75" y="275" font-family="'Outfit', sans-serif" font-size="20" font-weight="700" fill="#FFFFFF">Tellicherry Black Pepper</text>
  <text x="75" y="298" font-family="'Plus Jakarta Sans', sans-serif" font-size="12" fill="#86EFAC">Wayanad High-Altitude Harvest · Export Grade</text>
  <text x="75" y="335" font-family="'Outfit', sans-serif" font-size="22" font-weight="700" fill="#FBB03B">₹499 <tspan font-size="12" font-weight="400" fill="#94A3B8">/ 250g Jar</tspan></text>

  <rect x="75" y="365" width="290" height="42" rx="8" fill="#42A83D"/>
  <text x="135" y="391" font-family="'Plus Jakarta Sans', sans-serif" font-size="13" font-weight="700" fill="#FFFFFF">Order via WhatsApp</text>

  <!-- Right: Quick Cart & Specification Grid -->
  <rect x="410" y="80" width="340" height="370" rx="8" fill="#182A1F"/>
  <text x="435" y="115" font-family="'Outfit', sans-serif" font-size="16" font-weight="700" fill="#FFFFFF">Select Variant &amp; Quantity</text>

  <rect x="435" y="135" width="290" height="48" rx="6" fill="#203628"/>
  <text x="450" y="165" font-family="'Plus Jakarta Sans', sans-serif" font-size="12" fill="#FFFFFF">250g Glass Jar (Pack of 2) — ₹950</text>

  <rect x="435" y="195" width="290" height="48" rx="6" fill="#203628"/>
  <text x="450" y="225" font-family="'Plus Jakarta Sans', sans-serif" font-size="12" fill="#94A3B8">500g Eco Pouch — ₹890</text>

  <rect x="435" y="255" width="290" height="48" rx="6" fill="#203628"/>
  <text x="450" y="285" font-family="'Plus Jakarta Sans', sans-serif" font-size="12" fill="#94A3B8">1kg Bulk Foodservice Pack — ₹1,650</text>

  <rect x="435" y="320" width="290" height="100" rx="8" fill="#101D15" stroke="rgba(66,168,61,0.3)"/>
  <text x="455" y="348" font-family="'Plus Jakarta Sans', sans-serif" font-size="12" font-weight="600" fill="#42A83D">Direct Farmer Direct Sourcing</text>
  <text x="455" y="372" font-family="'Plus Jakarta Sans', sans-serif" font-size="11" fill="#94A3B8">Ships directly across India within 48 hours. Zero middleman markup.</text>
  <text x="455" y="396" font-family="'Plus Jakarta Sans', sans-serif" font-size="11" font-weight="600" fill="#FBB03B">Free delivery on orders above ₹1,000</text>
</svg>
